PathFileType	4	(X/Y/Z)	Patient4_TMGait_0pt2_03_right_23.trc.trc
DataRate	CameraRate	NumFrames	NumMarkers	Units	OrigDataRate	OrigDataStartFrame	OrigNumFrames
48.275862068965	48.275862068965	4	33	mm	48.275862068965	71	       141
Frame#	Time	Sacral			L.Shoulder			Chest			R.Shoulder			Neck			R.ASIS			L.ASIS			R.Thigh.Superior			R.Thigh.Lateral			R.Thigh.Inferior			R.Patella			L.Thigh.Superior			L.Thigh.Lateral			L.Thigh.Inferior			L.Patella			L.Shank.Superior			L.Shank.Lateral			L.Shank.Inferior			R.Shank.Superior			R.Shank.Lateral			R.Shank.Inferior			R.Heel			R.Midfoot.Superior			R.Midfoot.Lateral			R.Toe			L.Heel			L.Midfoot.Lateral			L.Midfoot.Superior			L.Toe			L.Elbow			L.Wrist			R.Elbow			R.Wrist			
		X1	Y1	Z1	X2	Y2	Z2	X3	Y3	Z3	X4	Y4	Z4	X5	Y5	Z5	X6	Y6	Z6	X7	Y7	Z7	X8	Y8	Z8	X9	Y9	Z9	X10	Y10	Z10	X11	Y11	Z11	X12	Y12	Z12	X13	Y13	Z13	X14	Y14	Z14	X15	Y15	Z15	X16	Y16	Z16	X17	Y17	Z17	X18	Y18	Z18	X19	Y19	Z19	X20	Y20	Z20	X21	Y21	Z21	X22	Y22	Z22	X23	Y23	Z23	X24	Y24	Z24	X25	Y25	Z25	X26	Y26	Z26	X27	Y27	Z27	X28	Y28	Z28	X29	Y29	Z29	X30	Y30	Z30	X31	Y31	Z31	X32	Y32	Z32	X33	Y33	Z33	

71	50.610000000000	844.617048670845	1000.266002320281	581.325067121017	977.096135494345	1429.152016575391	367.763144439426	1112.734981619268	1360.732319509415	501.783570784134	1070.818943984516	1435.258725241758	688.743409387006	989.727371879174	1489.310185511181	523.798547573042	1089.591413779260	935.363091354675	653.213638195528	1027.299398191271	958.341474424394	386.483385588790	1102.731546274074	725.693573008353	617.721788228811	1018.882946713921	619.359978677080	687.388635815297	1076.662051778658	563.049617120917	597.592172138425	1066.130343746563	472.238381371103	603.837495214063	1098.314801516715	760.763203321803	401.348428611035	1021.022404533317	626.955555290183	329.174174799487	1134.196623120399	573.769070073121	380.293311598233	1149.733769720928	507.364697124515	377.035504922808	1132.673254549562	435.685445757281	362.001199214389	1058.534892009286	313.076580204504	304.311256125162	1139.952168110205	205.691796705982	351.976290847791	1022.027363391389	387.901652106152	611.952604697313	939.317120526204	295.195476922453	678.949087873488	957.176678045064	197.363472206152	610.258591667025	799.075048346557	44.739499300362	583.171837359210	969.909710969298	93.970175537678	616.570734991642	882.126944657115	36.817542822305	658.041413422596	1090.502753514847	41.916498611918	647.663497124775	1040.200521176506	39.178740839057	382.201923995059	1113.749415189429	37.686780061503	301.704022401224	1194.564628878446	103.244659202277	326.034053332200	1323.026588541640	57.669039032226	296.946138241524	806.574090326149	1121.248494682067	294.681078637387	766.429150701171	864.402442377332	336.513541715964	1232.816377357043	1135.136956017649	808.680907019685	1481.163634741490	1159.532587043878	749.171093569703	
72	50.630714285714	844.709511587314	999.963520106839	577.500901210025	977.239598857273	1428.258466149307	362.389832988129	1113.078594237925	1360.022707322079	496.380544088111	1071.427245608582	1435.122413254635	683.094811642801	990.041552224887	1488.861782574290	518.276341263155	1089.956884205575	934.967243111279	649.228150276903	1026.908831990686	957.535481245464	382.646121896570	1102.282221267385	724.998571002594	614.278181458951	1017.974555706748	619.173502062187	684.439422786117	1075.372335833818	562.284011582727	594.934738315542	1064.282136200962	471.404487190111	601.639938903482	1097.557624263013	758.840345006063	397.532455887962	1018.149891189305	625.536566085899	326.963453167513	1131.017965996401	571.858904396494	377.882356347268	1145.379786708277	505.615325083524	375.208956564258	1128.948019770033	433.987024006542	360.251742599929	1054.904527311967	311.124269813666	303.336570147300	1136.276780823871	204.144455897261	351.618993610437	1019.663909587567	387.421899130000	610.187559455968	936.325886539582	295.556460716045	677.648368586702	953.732681917982	197.250734525120	609.563380380789	794.989577507875	44.891379297448	583.117694051990	965.843223706456	93.935079790390	616.335497297442	878.014866533363	36.922511379620	657.987405307111	1086.373406826523	41.830926036733	647.719705552204	1036.168967557751	38.560028171192	382.859080289430	1109.340639353779	37.017458631791	301.920148683924	1190.553315465891	101.886768610748	326.296404486921	1318.726993965806	55.722124202984	296.486134602432	809.764416122741	1118.369058706620	289.090050446363	773.105686141344	860.992247066892	331.673058178088	1238.185296229072	1138.474198799253	802.817447592892	1484.759785196319	1170.921057130541	740.734812955802	
73	50.651428571429	844.812743288687	999.891595872171	573.412793176326	977.468827955371	1427.484371131645	356.818538298324	1113.483885691730	1359.443097422605	490.808905916169	1072.093074973921	1435.160730662486	677.254324886794	990.453823648127	1488.567824500678	512.530716852683	1090.237592582452	934.638670251298	645.006078510328	1026.597331990489	956.975887492556	378.560878401686	1101.621022577147	724.345774714838	610.585227481091	1016.887702448743	619.084225538397	681.305813523183	1073.838507505531	561.589472050830	592.067295145426	1062.208404292725	470.693939795653	599.262998008977	1097.222855264160	757.636342507530	393.672841129643	1016.375839188545	624.672358462706	324.402478925444	1128.843122502378	570.597402787997	375.375147858774	1142.172531534513	504.342543950270	373.205826127988	1126.100008982329	432.667166832837	358.382924519593	1051.830185062398	309.766387655636	302.056349751795	1132.720316307489	202.894831534714	351.115338659544	1017.111848534428	387.054126542355	608.291909389990	933.209554286401	296.015066874619	676.235417662797	950.224811512246	197.223867727443	608.804099012810	790.915072937162	45.094832854448	583.050008943183	961.791429653257	93.924215046227	616.096279951672	873.911066606880	37.075375865552	657.916169597922	1082.241713345567	41.741289882076	647.770200732503	1031.753101577370	38.256930141342	383.263250389010	1104.624368633344	36.560308395852	301.958380529430	1186.271037515543	100.754502498451	326.399887594358	1314.178061092010	53.920223763285	296.022337607729	813.310746262132	1115.469431925764	282.949814835680	780.488217170748	857.595865364304	325.834423070003	1243.151562589540	1141.915649311335	796.862683871438	1487.847757967113	1181.616222717869	732.342625527141	
74	50.672142857143	844.906979282446	1000.065606857597	569.067170061692	977.717173024237	1426.877891835379	351.128646924197	1113.909785615768	1359.020118189512	485.108019565272	1072.811917323598	1435.365045666046	671.285735721229	990.949911611612	1488.440834483008	506.646909116543	1090.411662295787	934.400006102552	640.544222558006	1026.361693643400	956.678358038195	374.207502158001	1100.666440478542	723.750365494606	606.689194829679	1015.512156478975	619.131226640684	678.038352600965	1071.945871779068	560.992053910644	589.047533924334	1059.786758994221	470.148348464215	596.759918064245	1097.269491101780	757.150285279081	389.772962645409	1015.617961256620	624.306333296058	321.515722418438	1127.613320969205	569.929829847474	372.738703673596	1140.067788564514	503.514512203404	371.050945379061	1124.105760296359	431.700527555450	356.434807517881	1049.370484763497	308.936008570738	300.502482498403	1129.389073620220	201.932253722317	350.520032640381	1014.286615931124	386.834005269663	606.310233424933	929.906138088092	296.579547810501	674.739391273941	946.618682436251	197.301200650418	607.997556635110	786.847968389669	45.365150352676	582.969506281009	957.752959167703	93.949654048769	615.863568898348	869.811728906521	37.287370040077	657.828625576077	1078.103251564286	41.648002388026	647.811461976980	1027.180808401252	38.169210521362	383.440736400833	1099.840960042615	36.266376518423	301.861344356238	1181.892673740283	99.875699737635	326.386987245323	1309.586861702450	52.400438663433	295.619236342680	816.948298610276	1112.761916677345	276.318963191534	788.363468025054	854.422057123895	319.054900095141	1247.819907778505	1145.496621416965	790.856163306250	1490.579157690600	1191.738389706590	724.008984217411	
